<svg width="168" height="34" viewBox="0 0 168 34" fill="none" xmlns="http://www.w3.org/2000/svg">
<path d="M149.328 10.3986C150.275 10.3986 151.055 9.90635 151.16 9.27035L152.095 -1.30138C152.095 -2.34629 150.871 -3.2041 149.331 -3.2041C147.794 -3.2041 146.571 -2.34629 146.571 -1.30119L147.505 9.27035C147.608 9.90616 148.387 10.3986 149.332 10.3986H149.328ZM143.615 13.7007C144.09 12.8817 144.054 11.9613 143.553 11.5524L134.864 5.45699C133.96 4.93377 132.606 5.56355 131.837 6.89685C131.066 8.22845 131.202 9.71566 132.103 10.2391L141.725 14.719C142.327 14.9419 143.147 14.5128 143.618 13.6944L143.615 13.7007ZM155.047 13.695C155.521 14.5134 156.337 14.9427 156.939 14.7196L166.561 10.2396C167.468 9.71642 167.596 8.22902 166.832 6.89742C166.06 5.56544 164.703 4.93434 163.802 5.45755L155.112 11.5529C154.615 11.9613 154.578 12.8825 155.05 13.7012L155.047 13.695ZM149.328 23.6043C150.275 23.6043 151.055 24.0925 151.16 24.729L152.095 35.2993C152.095 36.3474 150.871 37.2033 149.331 37.2033C147.794 37.2033 146.571 36.3474 146.571 35.2993L147.505 24.729C147.608 24.0925 148.387 23.6043 149.332 23.6043H149.328ZM155.047 20.3015C155.521 19.4809 156.337 19.0554 156.939 19.281L166.561 23.7579C167.468 24.2816 167.596 25.7704 166.832 27.1031C166.06 28.4307 164.703 29.0635 163.802 28.5411L155.112 22.4513C154.615 22.0398 154.578 21.118 155.05 20.2998H155.046M143.615 20.3004C144.09 21.118 144.054 22.0398 143.553 22.4521L134.864 28.5416C133.96 29.0641 132.606 28.4313 131.837 27.1037C131.066 25.7709 131.202 24.2822 132.103 23.7584L141.725 19.2815C142.327 19.0559 143.147 19.4815 143.618 20.3023H143.615" fill="#A8A8A8"/>
<path d="M94.5181 22.4322C94.5181 22.7566 94.4892 23.0912 94.4004 23.385C94.0319 24.6055 92.7682 25.6376 91.1872 25.6376C89.869 25.6376 88.822 24.8888 88.822 23.3073C88.822 20.8869 91.4862 20.2184 94.5189 20.2352L94.5181 22.432V22.4322ZM99.2749 18.214C99.2749 14.2228 97.5695 10.7108 91.807 10.7108C88.849 10.7108 86.5013 11.5417 85.2199 12.2822L86.1584 15.4909C87.3295 14.7515 89.196 14.1394 90.9624 14.1394C93.8853 14.1313 94.364 15.7947 94.364 16.8592V17.1112C87.9925 17.1018 83.9649 19.308 83.9649 23.8022C83.9649 26.5484 86.0162 29.1206 89.5821 29.1206C91.7732 29.1206 93.6084 28.246 94.7067 26.8436H94.8152C94.8152 26.8436 95.5419 29.8882 99.5539 28.7233C99.3445 27.4572 99.2757 26.1056 99.2757 24.4803L99.2751 18.214M0.000244141 5.27541C0.000244141 5.27541 4.16387 22.3362 4.82872 25.105C5.6043 28.3369 7.00211 29.5266 11.0303 28.7233L13.6299 18.1463C14.2891 15.5178 14.7303 13.6438 15.1551 10.9726H15.229C15.5272 13.6721 15.9503 15.5259 16.4927 18.155C16.4927 18.155 17.5504 22.9571 18.0931 25.4785C18.6363 27.9991 20.1482 29.5887 24.0944 28.7233L30.2891 5.27466H25.289L23.1732 15.4131C22.6043 18.363 22.0886 20.6707 21.6907 23.3688H21.6199C21.2584 20.6945 20.798 18.4809 20.2203 15.6061L18.0191 5.27466H12.8085L10.4528 15.3456C9.78602 18.4068 9.16077 20.8776 8.76469 23.4859H8.69264C8.28599 21.0298 7.74467 17.9232 7.15884 14.9614C7.15884 14.9614 5.76028 7.75774 5.26838 5.27466L0.000244141 5.27541ZM39.7473 22.4322C39.7473 22.7566 39.7184 23.0912 39.6283 23.385C39.2605 24.6055 37.996 25.6376 36.4151 25.6376C35.0967 25.6376 34.0512 24.8888 34.0512 23.3073C34.0512 20.8869 36.7146 20.2184 39.7479 20.2352L39.7473 22.432V22.4322ZM44.5035 18.214C44.5035 14.2228 42.7981 10.7108 37.0368 10.7108C34.078 10.7108 31.7284 11.5417 30.4478 12.2822L31.3852 15.4909C32.5561 14.7515 34.4226 14.1394 36.1895 14.1394C39.1145 14.1313 39.5932 15.7947 39.5932 16.8592V17.1112C33.2191 17.1018 29.1933 19.308 29.1933 23.8022C29.1933 26.5484 31.2435 29.1206 34.8068 29.1206C37.0009 29.1206 38.835 28.246 39.9346 26.8436H40.0417C40.0417 26.8436 40.7705 29.8882 44.7816 28.7233C44.5718 27.4572 44.5035 26.1056 44.5035 24.4803V18.214ZM52.4415 23.7459V5.27541H47.679V28.7241H52.4415V23.7459ZM114.743 5.27541V22.5731C114.743 24.959 115.193 26.6288 116.152 27.6507C116.993 28.5442 118.373 29.1224 120.029 29.1224C121.438 29.1224 122.823 28.8537 123.476 28.6113L123.415 24.8907C122.929 25.0096 122.37 25.1058 121.606 25.1058C119.983 25.1058 119.441 24.0661 119.441 21.9252V15.3068H123.588V10.8197H119.441V5.27541H114.743ZM102.451 11.1086V28.7241H107.363V19.7046C107.363 19.2171 107.393 18.7923 107.47 18.4038C107.833 16.5135 109.278 15.3068 111.353 15.3068C111.922 15.3068 112.33 15.3686 112.771 15.4313V10.8197C112.4 10.7459 112.149 10.7114 111.689 10.7114C109.855 10.7114 107.769 11.8944 106.894 14.432H106.761V11.1086H102.451ZM55.7762 11.1086V28.7241H60.5626V18.3944C60.5626 17.9096 60.6195 17.397 60.7874 16.9526C61.1841 15.9126 62.152 14.6945 63.6966 14.6945C65.6289 14.6945 66.5312 16.3273 66.5312 18.6839V28.7228H71.3139V18.2672C71.3139 17.8048 71.377 17.2472 71.5138 16.8394C71.9065 15.6557 72.9491 14.6932 74.3852 14.6932C76.3432 14.6932 77.2831 16.2974 77.2831 19.0711V28.7222H82.0689V18.3466C82.0689 12.8756 79.2907 10.7097 76.154 10.7097C74.7662 10.7097 73.6696 11.0573 72.6779 11.665C71.8452 12.1781 71.0983 12.905 70.4466 13.8605H70.3759C69.6196 11.9621 67.84 10.7107 65.521 10.7107C62.5419 10.7107 61.2029 12.2209 60.3907 13.5016H60.3195V11.1081H55.7762" fill="#A8A8A8"/>
</svg>
